<svg width="25" height="24" viewBox="0 0 25 24" fill="none" xmlns="http://www.w3.org/2000/svg">
<path d="M8.7666 3C8.17781 3 7.69995 3.504 7.69995 4.125V16.921C9.84818 16.9264 11.9961 16.9331 14.1441 16.8983C14.4017 16.8918 14.6945 17.0448 14.75 17.3314C14.6796 18.3188 15.1369 19.3347 15.9294 19.8775C16.4131 20.2808 17.0537 20.2364 17.6254 20.3863C17.8454 20.4735 17.9627 20.6906 17.984 20.9227C19.4227 20.5922 20.5 19.2416 20.5 17.6253V4.12528C20.5 3.50428 20.0221 3.00028 19.4334 3.00028H8.76686L8.7666 3ZM10.3666 6.375H12.4999C12.7943 6.375 13.0332 6.627 13.0332 6.9375V9.1875C13.0332 9.498 12.7943 9.75 12.4999 9.75H10.3666C10.0722 9.75 9.83324 9.498 9.83324 9.1875V6.9375C9.83324 6.627 10.0722 6.375 10.3666 6.375ZM14.6332 7.5H17.8331C18.1275 7.5 18.3664 7.752 18.3664 8.0625C18.3664 8.373 18.1275 8.625 17.8331 8.625H14.6332C14.3388 8.625 14.0998 8.373 14.0998 8.0625C14.0998 7.752 14.3388 7.5 14.6332 7.5ZM10.3666 10.875H12.4999C12.7943 10.875 13.0332 11.127 13.0332 11.4375V13.6875C13.0332 13.998 12.7943 14.25 12.4999 14.25H10.3666C10.0722 14.25 9.83324 13.998 9.83324 13.6875V11.4375C9.83324 11.127 10.0722 10.875 10.3666 10.875ZM14.6332 12H17.8331C18.1275 12 18.3664 12.252 18.3664 12.5625C18.3664 12.873 18.1275 13.125 17.8331 13.125H14.6332C14.3388 13.125 14.0998 12.873 14.0998 12.5625C14.0998 12.252 14.3388 12 14.6332 12ZM4.5 17.625C4.5 19.4891 5.93251 21 7.69995 21H17.2998C15.5323 21 14.0998 19.4891 14.0998 17.625H4.5Z" fill="#343434"/>
</svg>
