<svg width="25" height="24" viewBox="0 0 25 24" fill="none" xmlns="http://www.w3.org/2000/svg">
<path d="M22.4441 12.2734C22.3906 12.4039 22.2995 12.5155 22.1826 12.5943C22.0656 12.6731 21.928 12.7155 21.7869 12.7162H19.6438V19.8576C19.6438 20.4258 19.418 20.9707 19.0161 21.3725C18.6142 21.7743 18.069 22 17.5006 22H14.6431C14.4537 22 14.272 21.9248 14.138 21.7908C14.004 21.6569 13.9288 21.4753 13.9288 21.2859V17.001C13.9288 16.8116 13.8535 16.63 13.7195 16.4961C13.5855 16.3621 13.4038 16.2869 13.2144 16.2869H11.7856C11.5962 16.2869 11.4145 16.3621 11.2805 16.4961C11.1465 16.63 11.0712 16.8116 11.0712 17.001V21.2859C11.0712 21.4753 10.996 21.6569 10.862 21.7908C10.728 21.9248 10.5463 22 10.3569 22H7.49935C6.93096 22 6.38584 21.7743 5.98393 21.3725C5.58201 20.9707 5.35622 20.4258 5.35622 19.8576V12.7162H3.21308C3.07205 12.7155 2.93437 12.6731 2.81742 12.5943C2.70046 12.5155 2.60945 12.4039 2.55585 12.2734C2.50115 12.1434 2.4862 12.0001 2.5129 11.8615C2.5396 11.723 2.60675 11.5955 2.70587 11.495L11.9928 2.21124C12.0592 2.14431 12.1382 2.09118 12.2253 2.05492C12.3123 2.01867 12.4057 2 12.5 2C12.5943 2 12.6877 2.01867 12.7747 2.05492C12.8618 2.09118 12.9408 2.14431 13.0072 2.21124L22.2941 11.495C22.3933 11.5955 22.4604 11.723 22.4871 11.8615C22.5138 12.0001 22.4989 12.1434 22.4441 12.2734Z" fill="#343434"/>
</svg>
