<svg width="25" height="24" viewBox="0 0 25 24" fill="none" xmlns="http://www.w3.org/2000/svg">
<path d="M22.5 18.8333C22.5 18.281 22.0523 17.8333 21.5 17.8333H17.4748C15.651 17.8333 14.1667 16.349 14.1667 14.5248C14.1667 12.651 15.651 11.1667 17.4748 11.1667H21.5C22.0523 11.1667 22.5 10.719 22.5 10.1667V8C22.5 7.44772 22.0523 7 21.5 7H3.5C2.94772 7 2.5 7.44772 2.5 8V21C2.5 21.5523 2.94772 22 3.5 22H21.5C22.0523 22 22.5 21.5523 22.5 21V18.8333Z" fill="#343434"/>
<path d="M15.5 14.4777C15.5 15.3372 16.2733 16 17.2235 16H21.5C22.0523 16 22.5 15.5523 22.5 15V14C22.5 13.4477 22.0523 13 21.5 13H17.2235C16.2733 13 15.5 13.6628 15.5 14.4777Z" fill="#343434"/>
<path d="M19.5 3.30925C19.5 2.64988 18.873 2.17099 18.2369 2.34449L8.5 5H18.5C19.0523 5 19.5 4.55228 19.5 4V3.30925Z" fill="#343434"/>
</svg>
